<svg width="140" height="130" viewBox="0 0 140 130" fill="none" xmlns="http://www.w3.org/2000/svg">
<path fill-rule="evenodd" clip-rule="evenodd" d="M111.755 77.8L111.639 77.9151C111.658 77.896 111.678 77.8768 111.697 77.8576C111.716 77.8384 111.736 77.8192 111.755 77.8ZM108.618 25.0364C91.4278 11.2092 64.9348 12.4396 49.4447 27.7847C33.9545 43.1297 35.3329 66.7785 52.5234 80.6058C52.5408 80.6198 52.5582 80.6338 52.5757 80.6478L52.5234 80.6057L108.618 25.0364Z" fill="#8D2570"/>
<path fill-rule="evenodd" clip-rule="evenodd" d="M28.7875 52.2504L28.8864 52.1521C28.8699 52.1684 28.8534 52.1848 28.8369 52.2012C28.8204 52.2176 28.8039 52.234 28.7875 52.2504ZM32.0294 105.017C49.2497 118.815 75.7399 117.539 91.197 102.167C106.654 86.7956 105.225 63.1492 88.0046 49.3515L32.0294 105.017Z" fill="#733ECA"/>
</svg>
